<?xml version="1.0" encoding="utf-8"?>
<!-- Generator: Adobe Illustrator 16.0.0, SVG Export Plug-In . SVG Version: 6.00 Build 0)  -->
<!DOCTYPE svg PUBLIC "-//W3C//DTD SVG 1.1//EN" "http://www.w3.org/Graphics/SVG/1.1/DTD/svg11.dtd">
<svg version="1.1" xmlns="http://www.w3.org/2000/svg" xmlns:xlink="http://www.w3.org/1999/xlink" x="0px" y="0px"
	 width="556.918px" height="403px" viewBox="0 0 556.918 403" enable-background="new 0 0 556.918 403" xml:space="preserve">
<g id="Draw">
	<g id="sun">
		<g id="sun_x5F_beam_x5F_8">
			<path fill="none" stroke="#1E439B" stroke-miterlimit="10" d="M165.542,66.36l-43.229,32.888
				c1.966,4.077,4.377,8.218,7.241,11.659l44.606-31.192C171.032,75.625,168.12,70.967,165.542,66.36z"/>
			<path fill="none" stroke="#1E439B" stroke-miterlimit="10" d="M154.293,42.5l-38.5,39c0,0,2.163,8.71,6.521,17.749l43.229-32.888
				C158.761,54.243,154.293,42.5,154.293,42.5z"/>
			<path fill="none" stroke="#1E439B" stroke-miterlimit="10" d="M366.293,113.788c-8.485-1.927-18.133-7.215-28.639-11.788
				l-43.788,33.182L337.654,102c-4.411-1.919-8.973-3.708-13.663-5.073l-55.628,42.236c16.688-1.724,28.988-5.627,54.93-7.73
				c44-3.567,69.752,9.494,69.752,9.494s1.748-8.927,3.557-14.662c0.119-0.379,0.252-0.757,0.392-1.132l-15.36,11.564l15.36-11.564
				c1.979-5.309,5.8-10.132,5.8-10.132S381.543,117.25,366.293,113.788z M312.979,132.432l34.751-25.834L312.979,132.432z
				 M363.142,112.938l-22.85,17.89L363.142,112.938z M375.502,115.201l-21.459,16.232L375.502,115.201z M369.452,133.719
				l23.593-18.099L369.452,133.719z"/>
			<path fill="none" stroke="#1E439B" stroke-miterlimit="10" d="M174.161,79.716l-44.606,31.192
				c2.619,3.147,5.613,5.709,8.988,7.092c2.459,1.008,4.879,2.074,7.433,3.177l40.067-30.337
				C181.909,88.641,177.882,84.581,174.161,79.716z"/>
			<path fill="none" stroke="#1E439B" stroke-miterlimit="10" d="M311.043,94.5c-21-1.5-27.25,3-53.446,7.5
				s-54.804-2.25-71.554-11.16l-40.067,30.337c8.217,3.548,17.824,7.474,34.573,11.044l40.014-30.384l-40.014,30.384
				c5.756,1.227,12.353,2.412,20.031,3.525l39.965-32.315l-39.965,32.315c6.102,0.885,12.882,1.725,20.462,2.504l45.995-38.025
				l-45.995,38.025c21.958,2.257,35.702,2.113,47.32,0.914l55.628-42.236C319.773,95.7,315.453,94.815,311.043,94.5z
				 M163.294,127.746l40.274-29.83L163.294,127.746z M243.797,139.889l55.26-45.577L243.797,139.889z"/>
		</g>
		<g id="sun_x5F_beam_x5F_7">
			<path fill="none" stroke="#1E439B" stroke-miterlimit="10" d="M289.355,210.804l-22.674,95.106L289.355,210.804
				c-5.49,6.545-10.477,13.017-14.062,18.196c-10.916,15.768-24.651,30.355-36.648,43.997l-42.484,70.496l42.484-70.496
				c-0.367,0.418-0.738,0.837-1.102,1.253c-12.25,14-40.25,47-41.25,66.75s-2.25,25.5-2.25,25.5h27.25l25.811-103.027L221.293,366.5
				h13.75l27.967-121.395L235.043,366.5h9.5c0,0-2-28.5,11.25-46.5c11.502-15.625,29.027-36.143,39.013-47.01l26.345-92.514
				C313.246,184.439,300.3,197.758,289.355,210.804z"/>
			<path fill="none" stroke="#1E439B" stroke-miterlimit="10" d="M322.793,179.75c-0.516,0.185-1.071,0.439-1.643,0.726
				l-26.345,92.514c1.518-1.651,2.866-3.086,3.987-4.24c4.104-4.225,10.659-13.17,18.279-22.249l21.154-74.121
				C332.303,175.629,326.81,178.311,322.793,179.75z"/>
			<path fill="none" stroke="#1E439B" stroke-miterlimit="10" d="M391.543,160.5c-1.75-8.5,0-15.315,0-15.315
				s-5.361-0.308-12.384,2.184l-18.353,61.444c5.737-6.582,10.232-13.665,16.799-19.563c11.688-10.5,21.188-16.5,21.188-16.5
				S393.293,169,391.543,160.5z M383.347,184.289l7.87-25.625L383.347,184.289z"/>
			<path fill="none" stroke="#1E439B" stroke-miterlimit="10" d="M338.227,172.38l-21.154,74.121
				c8.163-9.726,17.549-19.604,26.471-24.001l17.264-63.914C354.014,163.185,345.771,168.243,338.227,172.38z"/>
			<path fill="none" stroke="#1E439B" stroke-miterlimit="10" d="M368.293,153.25c-2.151,1.637-4.696,3.447-7.486,5.336
				L343.543,222.5c7.559-3.725,12.789-8.554,17.264-13.687l18.353-61.444C375.783,148.567,372.026,150.409,368.293,153.25z"/>
		</g>
		<g id="sun_x5F_beam_x5F_6">
			<path fill="none" stroke="#1E439B" stroke-miterlimit="10" d="M375.293,254.5c-3.75,9.748-20.063,28.765-26.563,37.015
				s-29.437,64.11-29.437,64.11h31.125l-23.573-17.996l23.573,17.996c0,0,13.125-20.625,18.625-29.875l-21.242-32.908l21.242,32.908
				c5.5-9.25,15.248-30.765,26.25-44.5c2.218-2.77,4.604-6.027,7.026-9.573l-24.714-34.634
				C377.1,244.091,377.528,248.688,375.293,254.5z M358.422,342.956l-22.319-26.517L358.422,342.956z M361.118,276.059
				l19.154,28.817L361.118,276.059z M372.697,259.678l18.347,27.323L372.697,259.678z"/>
			<path fill="none" stroke="#1E439B" stroke-miterlimit="10" d="M439.543,187.25c0,0-10.3,0.856-19.52-0.333l12.952,16.056
				l-12.952-16.056c-1.906-0.246-3.768-0.577-5.48-1.023c-10-2.606-14.25-10.221-14.25-10.221s-2.023,3.35-4.834,8.617
				l30.212,39.458l-30.212-39.458c-3.58,6.711-8.438,16.541-12.039,26.579l28.404,45.63l-28.404-45.63
				c-0.88,2.45-1.686,4.911-2.377,7.343c-2.322,8.162-3.094,14.059-3.438,18.832l24.714,34.634
				c9.592-14.043,19.754-32.675,22.349-44.052C427.918,213.375,439.543,187.25,439.543,187.25z"/>
		</g>
		<g id="sun_x5F_beam_x5F_5">
			<path fill="none" stroke="#1E439B" stroke-miterlimit="10" d="M468.61,167.332c0,0-2.667,6.167-9.5,11.833
				c-2.77,2.297-5.752,3.828-8.327,4.848l31.522-6.348C476.001,174.999,468.61,167.332,468.61,167.332z"/>
			<path fill="none" stroke="#1E439B" stroke-miterlimit="10" d="M508.776,189.999c-0.73-0.576-1.569-1.147-2.476-1.712
				l-43.108,7.943l43.108-7.943c-6.957-4.336-18.417-8.262-23.995-10.621l-31.522,6.348c-3.778,1.496-6.673,1.88-6.673,1.88
				s22.065,7.473,27.832,20.973c0.372,0.872,0.754,1.762,1.145,2.664l45.397-8.888C516.024,196.186,513.836,193.993,508.776,189.999
				z"/>
			<path fill="none" stroke="#1E439B" stroke-miterlimit="10" d="M538.776,248.998c-4-2.833-13.166-8.666-17-16.333
				c-0.335-0.67-0.592-1.385-0.789-2.132l-33.643,5.247c3.05,3.999,6.45,7.447,10.266,9.885c6.344,4.054,22.563,9.644,36.443,14.013
				l22.89-3.18C556.943,256.498,542.776,251.831,538.776,248.998z M503.108,248.535l28.338-4.874L503.108,248.535z"/>
			<path fill="none" stroke="#1E439B" stroke-miterlimit="10" d="M556.943,256.498l-22.89,3.18c12.374,3.896,22.89,6.82,22.89,6.82
				V256.498z"/>
			<path fill="none" stroke="#1E439B" stroke-miterlimit="10" d="M520.443,204.498c-0.704-1.475-1.34-2.734-1.959-3.856
				l-45.397,8.888c3.736,8.629,8.335,18.483,14.258,26.25l33.643-5.247C518.923,222.738,523.638,211.19,520.443,204.498z"/>
		</g>
		<g id="sun_x5F_beam_x5F_4">
			<path fill="none" stroke="#1E439B" stroke-miterlimit="10" d="M563.043,190.992l-1.121-20.179l-19.898,15.081
				C552.891,192.356,563.043,190.992,563.043,190.992z"/>
			<path fill="none" stroke="#1E439B" stroke-miterlimit="10" d="M561.793,168.5c0,0-12.064,0.292-24.533-8.15
				c-9.235-6.253-14.836-15.497-22.873-21.639l-19.934,19.63l19.934-19.63c-2.813-2.15-5.92-3.928-9.594-5.054
				c-2.708-0.83-5.471-1.377-8.169-1.723l-24.842,24.838l24.842-24.838c-11.415-1.459-21.664,0.732-21.664,0.732
				s1.333,7.667-0.5,15.167s-4.917,14.917-4.917,14.917s12.417-4.583,20.25-4.5s14.917,0.083,25.167,6.083
				c6.471,3.788,9.89,7.444,14.484,11.709l14.849-11.744l-14.849,11.744c2.684,2.491,5.767,5.189,10.099,8.246
				c0.828,0.584,1.656,1.115,2.48,1.605l19.898-15.081L561.793,168.5z M513.465,163.491l13.642-12.147L513.465,163.491z"/>
		</g>
		<g id="sun_x5F_beam_x5F_3">
			<path fill="none" stroke="#1E439B" stroke-miterlimit="10" d="M556.529,83.698l-15.311,35.575
				c0.408-0.144,0.815-0.287,1.241-0.447c9.333-3.5,20-12.667,20-12.667l3.333-22C565.793,84.16,561.55,83,556.529,83.698z"/>
			<path fill="none" stroke="#1E439B" stroke-miterlimit="10" d="M474.793,100.989c-5.334,0.497-9.333,3.837-9.333,3.837
				s5.667,5.667,8.167,10.5c0.562,1.086,0.975,2.344,1.286,3.636l7.733-18.475l-7.733,18.475c1.074,4.458,0.88,9.364,0.88,9.364
				s5.543-0.946,12.773-2.062l10.585-27.016C487.865,100.345,478.641,100.631,474.793,100.989z"/>
			<path fill="none" stroke="#1E439B" stroke-miterlimit="10" d="M547.96,87.16c-7.5,5.833-17.833,7.833-35,10.405
				c-4.783,0.717-9.449,1.261-13.809,1.685l-10.585,27.016c8.833-1.363,20.187-2.98,27.061-3.438
				c3.876-0.258,7.029-0.405,9.816-0.588l12.435-29.82l-12.435,29.82c5.79-0.381,10.001-0.929,15.775-2.965l15.311-35.575
				C553.714,84.09,550.654,85.063,547.96,87.16z M506.759,123.71l11.386-26.942L506.759,123.71z"/>
		</g>
		<g id="sun_x5F_beam_x5F_2">
			<path fill="none" stroke="#1E439B" stroke-miterlimit="10" d="M432.668,95.875c0,0,9.457-1.677,15.348-1.19l-5.109-10.446
				l5.109,10.446c0.542,0.044,1.056,0.106,1.527,0.19c5.595,1.002,14,7.125,14,7.125s0.339-0.383,0.921-1.011L452.74,74.316
				C444.677,81.522,432.668,95.875,432.668,95.875z"/>
			<path fill="none" stroke="#1E439B" stroke-miterlimit="10" d="M507.543-1c0,0-8,17.25-9.5,24.25s-3.625,12.5-7.75,19.75
				s-27.929,23.375-35.875,29.875c-0.534,0.437-1.097,0.922-1.678,1.441l11.724,26.673c2.368-2.556,8.813-9.232,13.329-11.239
				c4.481-1.992,7.386-2.171,13.119-5.95l-11.881-29.719L490.912,83.8c1.463-0.964,3.101-2.151,5.006-3.675
				c2.24-1.792,4.415-4.282,6.467-7.186l-11.472-31.044l11.472,31.044c6.535-9.249,11.815-22.747,13.908-31.689
				c2.75-11.75,5.5-20,7.5-26.125l-4.117-15.544l4.117,15.544c2-6.125,7.25-15,7.25-15L507.543-1z M465.094,64.775l10.566,26.159
				L465.094,64.775z M498.461,21.602l12.102,36.407L498.461,21.602z M505.68,3.13l10.956,36.675L505.68,3.13z"/>
		</g>
		<g id="sun_x5F_beam_x5F_1_1_">
			<path fill="none" stroke="#1E439B" stroke-miterlimit="10" d="M416.565,68.906l-24.021-9.785L416.565,68.906
				c-0.091-0.245-0.182-0.49-0.272-0.733c-5.167-13.833-11.938-33.528-15.104-45.861c-0.713-2.777-1.743-5.679-2.909-8.509
				L368.709,3.186l29.571,10.617c-4.014-9.74-9.654-18.63-9.654-18.63l-24,1.167c0,0,16.333,27,20,36s7.666,23.833,10,37.167
				l26.839,13.21C419.966,78.328,418.271,73.5,416.565,68.906z M402.468,27.018l-25.068-8.75L402.468,27.018z M384.433,31.876
				l22.262,8.871L384.433,31.876z M411.422,54.7l-22.289-8.967L411.422,54.7z"/>
			<path fill="none" stroke="#1E439B" stroke-miterlimit="10" d="M421.465,82.717l-26.839-13.21
				c0.746,4.262,1.116,6.835,1.342,8.759l28.733,14.124l-28.733-14.124c0.363,3.104,0.349,4.522,0.911,8.576l26.929,12.577
				l-26.929-12.577c0.18,1.295,0.418,2.854,0.747,4.831c0.224,1.342,0.501,2.632,0.807,3.879l16.762,7.737l-16.762-7.737
				c0.788,3.212,1.799,6.08,2.813,8.499l8.382,3.525l-8.382-3.525c2.112,5.044,4.215,8.122,4.215,8.122s4.833-6.167,9.333-8.667
				s11.833-5.167,11.833-5.167S424.428,91.389,421.465,82.717z"/>
		</g>
		<g id="blue_x5F_man_x5F_sun">
			<path fill="#1E439B" stroke="#FFFFFF" stroke-width="0.5" stroke-miterlimit="10" d="M453.168,99.875
				c-13.25-5.5-33.25-2.625-51,24.625s-4.5,47.875,12.375,56.125s48.875,4,54.75-27.625S466.418,105.375,453.168,99.875z
				 M454.021,151.533c-5.375,19.625-19.978,24.342-35.103,20.717s-14.25-24.625-7.125-39.5s24.028-15.556,32.778-11.556
				S459.396,131.908,454.021,151.533z"/>
			<path fill="#1E439B" stroke="#FFFFFF" stroke-width="0.5" stroke-miterlimit="10" d="M414.48,127.188
				c0,0-3.375,7.813-3.25,14.063s2.188,13.938,6.438,13.438s5.688-5.479,5.375-13.333s2.875-17.979,6.813-19.292
				s13.002,4.21,16.752,13.022s7.248,33.415,7.248,33.415s-3.75-14.688-6.5-20.063s-8.458-12.082-12.021-10.77
				s-6.165,13.457-6.165,13.457L418.105,163l-16.438-16.563l6.813-19.063L414.48,127.188z"/>
			<path fill="#1E439B" stroke="#FFFFFF" stroke-width="0.5" stroke-miterlimit="10" d="M435.105,109.438
				c0,0,8.875,7.813,15.5,21.75s2.625,39.625,2.625,39.625s-0.375-24.438-5.813-33.688s-19.813-21.688-19.813-21.688
				L435.105,109.438z"/>
			<path fill="#1E439B" stroke="#FFFFFF" stroke-width="0.5" stroke-miterlimit="10" d="M437.469,110.909
				c2.75-1.5,5.074-0.756,5.074-0.756s1.25,8.348,5.5,10.723s9.75,2.875,12.375-1s1.125-10.25-2.625-12.375s-11.5-2.625-11.5-2.625
				s-3.25-4.125-11.875-3.875s-20.822,4.782-27.536,15.579s-12.358,24.177-9.536,34.674s17.572,21.247,28.572,17.872
				s10.25-14,9.938-19.938s-3.938-13.438-1.875-15.063s8.313,7.125,10.563,12.125s6.833,18.417,6.833,18.417
				s0.479-14.229-1.521-20.792s-11.875-23.063-19.438-21.125s-5.708,20.879-5.708,20.879s2.083,13.825-6.917,13.121
				s-8.666-9.833-7.833-17.333s9.166-17.25,9.166-17.25"/>
			<path fill="#1E439B" stroke="#FFFFFF" stroke-width="0.5" stroke-miterlimit="10" d="M419.126,122.167
				c0,0-3.42,11.108,2.178,16.442s7.655,8.061,18.53,10.061s17.042-1.503,17.042-1.503s-10.626-0.661-17.584-5.495
				s-11.791-12.501-10.791-17.501s6.218-11.761,8.968-13.261"/>
		</g>
	</g>
	<g id="croud">
		<path id="croud_x5F_background" fill="#1E439B" d="M0.048,345.333v60.834l553.799-1v-48.334c0,0-39.471-4.248-50.137-4.332
			s-32.916,0.75-32.916,0.75s1.334-3.418,1.25-5.584s-2.084-5.666-2.084-5.666s0.583,4.333,0,5.583s-2.166,4.5-2.166,4.5
			l-5.417,0.417c0,0-1.499-1.416-1.333-2.75s2-4.001,1.75-5.334s-1.834-2.584-4.084-1.5s-3.833,3.668-3.583,5.084s1,2.25,1,3.5
			s-2.25,2.666-2.25,2.666l-4.917,0.834c0,0-1.499-3-1.332-5.167s1.5-7.833,1.5-7.833s-3.417,2.917-4,6.75s1,6.75,1,6.75
			l-4.667,0.083c0,0,1.5-2.167,1.5-4.167s-1.416-4.333-1.416-4.333s0.166,2.417-0.834,4.417s-2.416,4-2.416,4h-1.75
			c0,0-0.418-1.25-0.084-1.917s1-1.333,1-2.583s-0.833-2.5-1.583-2.417s-2.376,0.722-2.501,2.555s0.334,1.708,0.459,2.333
			s-0.292,2.125-0.292,2.125l-3.75,0.209c0,0,0.209-2.041,0.042-4.125s-0.875-4.167-0.875-4.167s0.207,3.666-0.959,5.333
			s-2.708,3.334-2.708,3.334l-2.792-0.084c0,0,2.542-1.75,2.917-3.583s-0.25-6.042-0.25-6.042s-0.416,4.167-1.708,5.667
			s-3.25,3.458-3.25,3.458l-2.167-0.833c0,0-0.626-1.875-0.167-3s1.709-2.626,1.667-3.792s-0.916-1.875-1.708-1.708
			s-2.959,1.375-3.042,2.75s0.501,2.124,0.417,2.833s-1.792,2.875-1.792,2.875l-27.542-0.166l-8.167-0.834
			c0,0,1.791-1.208,2.25-3.708s0.125-6.458,0.125-6.458s-0.875,3.959-1.833,5.375s-3.083,4.208-3.083,4.208l-2.584-1.417
			c0,0-0.041-1.875,0.584-2.5s2.916-3.041,3.166-4.583s-0.334-4.208-2.125-4.333s-3.084,0.583-3.75,1.833s-0.25,3.833-0.375,5.083
			s-2.458,4.167-2.458,4.167l-2.334-0.042c0,0-0.458-3.625-0.208-5.375s1.458-6.625,1.458-6.625s-2.959,3-3.625,5.542
			s-0.875,5.708-0.875,5.708l-61.167-2.68c0,0-2.75,1-5.5,0.833s-4.333-1.917-4.333-1.917s0.917-2.334,1.167-5.25
			s-0.417-7.5-0.417-7.5s-0.417,4.75-1.75,6.75s-1.583,5.501-3.833,5.834s-3.333-2.334-2.833-3.667s2.167-2.084,2.167-4.167
			s-0.75-4.75-2.583-4.75s-4.5,1.25-5,3.5s0.667,4,0.083,5.417s-1.5,2.5-2.667,2.75s-2.167,0.333-2.167,0.333
			s-0.667-3.249-0.75-4.916s0.5-6.5,0.5-6.5s-2.25,3.166-2.583,5.416s-0.667,6.75-0.667,6.75l-14.083,2.334
			c0,0,0.417-3.251,0.417-4.584s-0.083-5.166-0.083-5.166s-0.667,3.584-1.5,5s-3.333,4.75-3.333,4.75L248.043,349
			c0,0-0.083-1.667,0.667-2.417s1.333-2.667,1.333-4.25s-0.25-4.666-2-4.583s-3.833,1.584-4.25,3.417s-0.083,3.333,0.25,4.583
			s-0.417,3.417-0.417,3.417l-4.083,0.166c0,0-1.25-1.416-1.417-3.916s-0.083-5-0.083-5s-2,1.334-2.417,3.5s-0.25,5.333-0.25,5.333
			l-5.083-2.417c0,0,1.584-0.916,2.167-2.083s-0.167-4.667-0.167-4.667s-1.167,2.668-1.75,3.334s-2.833,2-2.833,2l-3-1l-27.417,0.5
			l-2.5,0.666c0,0,0.75-2.332,0.75-3.666s-0.25-4.5-0.25-4.5s-0.667,3.417-1.417,4.5s-3.083,3.666-3.083,3.666L187.71,345
			c0,0,2.667-2.834,3.25-4.667s0.833-5.083,0.833-5.083s-1.25,2.749-2.583,4.333s-3.583,3.667-3.583,3.667l-2.917-0.5
			c0,0-0.333-2.167,0.25-3s2.833-1.833,2.75-3.583s-0.25-4.334-2.083-4.584s-3.917,1.251-4.583,2.834s0.5,3,0.25,4.25
			s-2.083,2.5-2.083,2.5l-7.917,0.416c0,0-1.917-3.583-1.917-5.583s1.333-6.833,1.333-6.833s-3.083,2.082-3.333,5.166
			s0.083,7.75,0.083,7.75s-2.917,0.25-4.667,1s-3.417,2-3.417,2l-23.417-0.333l-3.417-1.417c0,0,0.166-2.833-0.417-5.333
			s-3.667-4.75-3.667-4.75s1.25,2,1.167,4s-1.167,6.333-1.167,6.333l-3.583-2.75l0.083-4.25c0,0,1.667-1.666,1.333-3.583
			s-0.583-2.667-2-2.75s-2.834,0.916-2.917,2.333s0.5,1.918,0.5,3.084s-0.917,3.25-1.75,3.833s-4.75,0.25-4.75,0.25
			s-0.75-4.75-0.083-6.5s2.25-7.333,2.25-7.333s-3.667,3.833-4.25,5.833s-2.417,7.167-2.417,7.167l-2.75-0.417
			c0,0,0.834-4.584,1.667-6.417s2.667-6.583,2.667-6.583s-4.333,4.167-5.25,6s-2.417,6.167-2.417,6.167l-2.5-0.334
			c0,0-1.75-1.333-1.583-3.083s2.167-3.333,2-5.583s-1.583-3.834-2.75-3.917s-3.5,0.999-3.5,3.083s0.917,3.751,0.5,5.334
			s-0.417,3.5-1.917,4.25S88.293,339,88.293,339s-0.084-4.583,0.583-7s3.667-8.417,3.667-8.417s-5.333,5.001-6,7.834
			s-1.583,8.5-1.583,8.5l-4.834,1.166L25.958,347l-4.333-0.25c0,0,1.083-3.334,1-5.417s-1.917-5.833-1.917-5.833
			s0.5,2.501,0.167,4.417s-2.333,4.333-2.333,4.583s-5,0.583-5,0.583s0.75-2.916,0.917-5.416s-0.417-6.584-0.417-6.584
			s-0.917,3.834-1.833,6.417s-3.417,5.75-3.417,5.75l-3.833-0.083c0,0-1.083,0.084-1.083-2.25s2.083-3.583,1.833-5
			s-0.417-2.666-1.917-2.75s-2.75,2-2.75,3s0.75,2.416,0.667,3.583S0.048,345.333,0.048,345.333z"/>
		<path id="blue_x5F_man_x5F_5" fill="#1E439B" stroke="#FFFFFF" stroke-miterlimit="10" d="M448.793,406.082h58
			c0,0,5.5-41.082,15.5-42.582s26.5,41,26.5,41l7.75,0.25V362.5c0,0-7-16.75-13.25-20s-12-8.25-11-11.75s17.25-6.896,20.5-12.073
			s9.107-19.927,1.054-26.177s-18.163-2.176-25.733,7.037s-4.82,23.108-11.32,28.213s-16.75,5.02-23-2.24s0.75-30.51,12-43.51
			s48.054-33.75,48.054-33.75s-41.554,11.25-56.304,21.25s-29.916,27-30.5,44.75s10,23.25,11,38.25S448.793,406.082,448.793,406.082
			z"/>
		<g id="blue_x5F_man_x5F_4">
			<path fill="#1E439B" stroke="#FFFFFF" stroke-miterlimit="10" d="M404.96,311.991c0,0,15.667,6.001,22.667,5.334
				s10.334-5.001,16-5.334s21.666,0,21.666,0s-22.499,11.833-28.666,13s-29.167,0-29.167,0L404.96,311.991z"/>
			<path fill="#1E439B" stroke="#FFFFFF" stroke-miterlimit="10" d="M393.96,403.993c0,0-6.167-21.5-6.667-41s0.833-32.166,0-37.833
				s-0.707-22.487,4.518-29.153s14.649-13.014,21.649-7.347s2,14.167,0,17.167s-10,6.833-6.5,14.333s23.167,14,29.167,14
				s7.499-4,13.666-4.5s18.334,3.5,18.334,3.5s-10.168,0.666-18.334,5.333s-5,7.717-13.833,6.858s-17.021-4.703-22.521,1.464
				s-5.146,47.359-3.146,55.185S393.96,403.993,393.96,403.993z"/>
		</g>
		<path id="blue_x5F_man_x5F_3" fill="#1E439B" stroke="#FFFFFF" stroke-miterlimit="10" d="M302.793,407c0,0,1.75-66.75-6.25-96.25
			S241.293,251,241.293,251s31,2.5,48,18.5s25.762,33.51,34.631,31.755s8.369-12.005,7.119-15.005s-6.75-10-2.75-20.5
			s15.25-19.25,24-14.75s11.75,13.5,8.25,23s-12.75,11.25-14.5,18s2,8.75,6,8s10.5-24.75,36.75-34.25s53.75,6.75,53.75,6.75
			s-33.607-2.282-53.357,13.468s-32.644,38.281-40.894,64.281S340.293,407,340.293,407H302.793z"/>
		<path id="blue_x5F_man_x5F_2" fill="#1E439B" stroke="#FFFFFF" stroke-miterlimit="10" d="M200.293,404.325c0,0,0.334-75-8.333-86
			s-37.748-24.476-29.958-67.775s44.958-38.892,44.958-38.892S186.293,220,179.793,239.75s2.127,44.508,16.793,47.175
			s12.216-4.97,12.374-6.934s-1.199-16.397,1.134-24.397s12.272-15.816,19.606-12.816s7.093,18.807,2.093,26.473
			s-13.166,11.732-10.833,15.741s5.333,2,17,0s28.667-1.334,35.667,12s7.851,24.511-3.991,39.76s-33.092,3.999-33.092,3.999
			s21.5-0.5,26.75-12.75s-0.666-21.434-9.333-23.342s-19.334,11.143-23.845,23.716s-8.04,24.46-8.706,39.127
			s0.551,36.824,0.551,36.824H200.293z"/>
		<g id="blue_x5F_man_x5F_1_1_">
			<path id="right_x5F_arm" fill="#1E439B" stroke="#FFFFFF" stroke-miterlimit="10" d="M146.802,322.505l-8.167-3.667
				c0,0,2-10.5,1.5-16.833s-4.667-22-4.667-22s7.667,10.333,9.667,16.333S146.802,322.505,146.802,322.505z"/>
			<path id="body_1_" fill="#1E439B" stroke="#FFFFFF" stroke-miterlimit="10" d="M138.293,403.995c0,0,0.667-52.332-3-59.666
				s-17-22.666-16.667-38s12.333-27.334,12.333-27.334s-4.667,20.333,0,28s12.218,15.035,14.843,14.845s3.976-1.615,4.642-6.281
				s0.191-10.055,1.858-13.221s8-8.338,13.5-5.171s4,9.5,2.667,12.667s-6.5,7.333-6.5,7.333s-0.333,5.506-1.5,11.173
				s-3.5,8.161-4.333,14.661s-1.5,60.994-1.5,60.994H138.293z"/>
		</g>
		<g id="torch">
			<g>
				<path fill="#FFFFFF" d="M149.969,105.054c0,0-0.426-5.387,1.657-7.97s5.917-4.325,7.417-5.496s4.583-5.034,4.583-5.034
					s-2,2.872-2.417,5.034s0.5,7.662-1.5,10.246S149.969,105.054,149.969,105.054z"/>
				<path fill="#1E439B" d="M149.919,105.057c-0.153-1.013-0.194-2.042-0.155-3.072c0.032-0.515,0.074-1.031,0.155-1.545
					c0.079-0.514,0.173-1.031,0.338-1.535c0.151-0.507,0.368-1,0.627-1.48c0.15-0.238,0.286-0.451,0.483-0.693l0.51-0.566
					c0.313-0.386,0.757-0.731,1.148-1.084c0.408-0.339,0.828-0.633,1.252-0.934c0.86-0.571,1.763-1.066,2.652-1.557l1.325-0.74
					l0.629-0.399c0.175-0.136,0.374-0.33,0.56-0.492c0.37-0.345,0.776-0.664,1.099-1.049c0.343-0.368,0.672-0.75,1.003-1.129
					c0.654-0.768,1.301-1.556,1.898-2.372l0.374,0.279c-0.285,0.462-0.565,0.938-0.813,1.424c-0.25,0.485-0.496,0.975-0.695,1.478
					c-0.218,0.494-0.403,1.001-0.537,1.505c-0.048,0.252-0.143,0.506-0.156,0.754c-0.04,0.287-0.039,0.519-0.054,0.784
					c-0.048,2.161,0.186,4.427-0.269,6.708c-0.106,0.57-0.288,1.137-0.526,1.688c-0.139,0.271-0.256,0.549-0.445,0.8
					c-0.103,0.137-0.139,0.235-0.298,0.403l-0.292,0.295c-0.192,0.196-0.5,0.388-0.748,0.572c-0.26,0.142-0.516,0.291-0.778,0.418
					c-0.528,0.242-1.064,0.443-1.605,0.615c-1.082,0.347-2.191,0.539-3.295,0.706c-1.106,0.158-2.218,0.246-3.332,0.265
					l-0.047,0.001L149.919,105.057z M150.023,104.992c1.071-0.187,2.133-0.414,3.184-0.663c1.07-0.252,2.119-0.58,3.133-0.951
					c0.505-0.192,0.995-0.41,1.461-0.656c0.228-0.128,0.444-0.272,0.664-0.406c0.18-0.166,0.36-0.256,0.546-0.464l0.28-0.307
					c0.035-0.028,0.122-0.186,0.181-0.272c0.145-0.195,0.235-0.435,0.344-0.658c0.192-0.468,0.326-0.969,0.429-1.485
					c0.205-1.034,0.268-2.117,0.315-3.208c0.042-1.094,0.025-2.198,0.089-3.333c0.022-0.287,0.044-0.61,0.098-0.869
					c0.038-0.305,0.152-0.573,0.226-0.859c0.183-0.554,0.407-1.083,0.67-1.584c0.254-0.508,0.548-0.988,0.847-1.463
					c0.298-0.476,0.613-0.936,0.945-1.393l0.374,0.279l-1.012,1.147c-0.337,0.383-0.656,0.776-1.008,1.15
					c-0.348,0.376-0.697,0.75-1.033,1.138c-0.327,0.399-0.72,0.719-1.068,1.092c-0.186,0.184-0.344,0.353-0.553,0.547l-0.618,0.477
					l-1.265,0.867c-0.852,0.558-1.664,1.153-2.48,1.731c-0.385,0.313-0.799,0.602-1.169,0.916c-0.351,0.338-0.741,0.592-1.079,0.991
					L152,97.311c-0.125,0.147-0.271,0.362-0.401,0.545c-0.243,0.404-0.46,0.833-0.622,1.294c-0.342,0.912-0.565,1.891-0.703,2.883
					C150.136,103.007,150.054,103.997,150.023,104.992z"/>
			</g>
			<g>
				<path fill="#FFFFFF" d="M151.376,103.667c0,0,1.43-4.417,2.465-5.583s4.785-3.25,4.785-3.25s-0.25,4.583-1.167,5.583
					S151.376,103.667,151.376,103.667z"/>
				<path fill="#1E439B" d="M151.376,103.667c0.208-0.979,0.502-1.932,0.806-2.888c0.149-0.479,0.344-0.944,0.526-1.416
					c0.1-0.233,0.214-0.465,0.326-0.696c0.096-0.233,0.274-0.46,0.417-0.69c0.185-0.287,0.352-0.385,0.528-0.586
					c0.177-0.178,0.401-0.341,0.603-0.509c0.417-0.327,0.818-0.613,1.238-0.898c0.833-0.572,1.692-1.078,2.565-1.583l0.793-0.46
					l-0.056,0.921c-0.065,1.079-0.189,2.135-0.379,3.203c-0.105,0.532-0.226,1.063-0.413,1.598
					c-0.101,0.269-0.205,0.537-0.391,0.815l-0.158,0.207c-0.122,0.12-0.125,0.102-0.193,0.16l-0.317,0.238
					c-0.22,0.156-0.487,0.292-0.728,0.436c-0.25,0.149-0.485,0.258-0.727,0.376c-0.481,0.237-0.97,0.447-1.457,0.661
					C153.37,102.945,152.391,103.349,151.376,103.667z M151.376,103.667c0.92-0.532,1.854-1.024,2.762-1.563
					c0.457-0.261,0.916-0.518,1.357-0.797c0.22-0.137,0.458-0.266,0.651-0.405c0.202-0.144,0.406-0.256,0.605-0.419l0.297-0.262
					c0.031-0.028,0.14-0.121,0.108-0.096l0.073-0.115c0.103-0.166,0.186-0.396,0.259-0.625c0.141-0.47,0.231-0.978,0.311-1.485
					c0.17-1.014,0.259-2.064,0.331-3.093l0.737,0.461c-0.857,0.471-1.708,0.982-2.54,1.496c-0.415,0.253-0.835,0.528-1.214,0.797
					c-0.185,0.143-0.375,0.258-0.563,0.417c-0.163,0.159-0.43,0.339-0.506,0.479c-0.129,0.186-0.283,0.336-0.395,0.558l-0.366,0.624
					c-0.226,0.435-0.452,0.87-0.662,1.318C152.175,101.842,151.791,102.758,151.376,103.667z"/>
			</g>
			<g>
				<path fill="#FFFFFF" d="M141.793,108.001l5.167-5.418l5.583,4.583l-3.648,6.722c0,0-2.352-0.472-4.519-2.305
					S141.793,108.001,141.793,108.001z"/>
				<path fill="#1E439B" d="M141.757,107.967c0.739-1.019,1.527-1.992,2.346-2.935c0.825-0.938,1.657-1.868,2.542-2.749l0.297-0.296
					l0.294,0.26c0.902,0.798,1.76,1.651,2.641,2.475c0.889,0.815,1.823,1.574,2.792,2.291l0.125,0.092l-0.076,0.157
					c-0.553,1.15-1.057,2.327-1.629,3.467c-0.558,1.147-1.153,2.275-1.728,3.413l-0.182,0.359l-0.39-0.092
					c-0.444-0.104-0.832-0.219-1.226-0.372c-0.198-0.068-0.392-0.147-0.579-0.24c-0.188-0.091-0.382-0.169-0.563-0.272
					c-0.365-0.202-0.736-0.393-1.07-0.646c-0.351-0.226-0.669-0.496-0.986-0.766c-0.151-0.12-0.335-0.283-0.465-0.426l-0.42-0.428
					c-0.138-0.142-0.264-0.328-0.395-0.488c-0.127-0.168-0.264-0.328-0.369-0.507c-0.233-0.341-0.438-0.701-0.606-1.077
					c-0.153-0.384-0.31-0.761-0.366-1.174l-0.003-0.024L141.757,107.967z M141.855,108.013c0.154,0.351,0.363,0.68,0.572,0.997
					c0.237,0.314,0.471,0.622,0.735,0.908c0.122,0.152,0.267,0.276,0.403,0.409c0.143,0.13,0.259,0.265,0.421,0.389l0.458,0.387
					c0.154,0.139,0.28,0.227,0.453,0.343c0.617,0.457,1.298,0.816,1.981,1.154c0.348,0.158,0.7,0.306,1.057,0.436
					c0.349,0.14,0.73,0.25,1.063,0.333l-0.571,0.268c0.641-1.102,1.263-2.215,1.92-3.309c0.644-1.101,1.356-2.165,2.02-3.255
					l0.048,0.25c-0.892-0.811-1.818-1.58-2.791-2.293c-0.98-0.704-1.983-1.378-2.942-2.108l0.591-0.036
					c-0.837,0.925-1.728,1.801-2.625,2.669C143.754,106.408,142.828,107.233,141.855,108.013z"/>
			</g>
			<path fill="#1E439B" stroke="#FFFFFF" stroke-miterlimit="10" d="M153.841,116.194c0,0-11.798,2.444-14.465,0
				s0.434-13.611,0.434-13.611s1.733,6.833,4.566,9S153.841,116.194,153.841,116.194z"/>
			<polygon fill="#1E439B" stroke="#FFFFFF" stroke-miterlimit="10" points="155.512,113.788 152.543,111.583 150.876,114.333 
				153.841,116.194 			"/>
			<g>
				<polygon fill="#1E439B" points="147.899,103.327 145.976,105.054 147.099,102.726 				"/>
			</g>
			<g>
				<polygon fill="#1E439B" points="148.641,103.963 146.067,106.625 147.834,103.371 				"/>
			</g>
			<g>
				<polygon fill="#1E439B" points="149.482,104.701 147.499,106.063 148.758,104.013 				"/>
			</g>
			<g>
				<polygon fill="#1E439B" points="150.352,105.375 149.12,106.063 149.586,104.732 				"/>
			</g>
			<g>
				<polygon fill="#1E439B" points="151.213,106.168 149.969,106.625 150.539,105.429 				"/>
			</g>
			<g>
				<polygon fill="#1E439B" points="151.968,106.707 150.422,107.75 151.208,106.059 				"/>
			</g>
			<g>
				<polygon fill="#1E439B" points="152.466,107.347 150.422,108.75 151.745,106.653 				"/>
			</g>
			<path fill="#1E439B" stroke="#FFFFFF" stroke-miterlimit="10" d="M136.543,295l-3.917-0.005c0,0-5.167-38.331-5.667-54.331
				s3.333-70.491,7.333-87.324s24.667-44.333,24.667-44.333l5.333,7c0,0-20.25,24.631-23.625,44.399s-4.542,40.761-5.708,55.095
				s-2.417,28.5-1.667,40.75S136.543,295,136.543,295z"/>
		</g>
	</g>
	<g id="road">
		<path id="road_x5F_ground_x5F_background" fill="#FFFFFF" stroke="#FFFFFF" stroke-width="0.5" stroke-miterlimit="10" d="
			M557.543,215.5l-2.625-17.875c0,0-53.98,8.547-114.97,6.878c-31.707-0.868-54.429-6.337-91.988-14.503
			s-75.952-11.555-141.989-14.469C68.429,169.46,0.048,205.75,0.048,205.75l-0.209,31.004c0,0,63.705-37.004,167.705-42.004
			s213,33.25,265.125,33.75S557.543,215.5,557.543,215.5z"/>
		<polygon id="road_x5F_bottom" fill="#1E439B" stroke="#FFFFFF" stroke-miterlimit="10" points="-0.207,234.5 5.293,234.5 
			14.96,224.5 18.293,224.5 28.794,218.5 35.293,218.5 41.96,212.5 44.293,212.5 76.127,208.998 79.794,203.914 85.627,204.623 
			91.627,200.894 99.294,202.031 105.794,198.18 114.46,199.839 120.127,197.168 123.46,198.5 125.96,195.666 128.294,197.998 
			140.96,196.831 145.46,192.831 152.127,195.998 159.46,192.831 165.127,193.831 169.127,191.498 183.96,193.664 187.127,191.498 
			207.294,192.831 218.96,191.498 222.127,194.164 238.239,192.996 245.906,196.329 252.072,195.162 262.406,198.162 
			280.739,198.329 286.406,201.162 301.739,200.996 305.906,204.329 318.572,205.996 326.239,208.496 342.239,207.662 
			353.905,214.829 368.405,214.662 372.405,217.162 381.572,216.662 396.905,222.496 413.405,221.996 420.072,224.662 
			428.57,222.329 444.576,224.49 457.57,221.829 471.236,223.49 482.57,221.996 502.236,223.996 514.236,218.996 541.043,217.996 
			555.904,212.152 555.237,244.652 551.57,241.323 552.486,236.49 542.611,226.323 532.841,231.823 520.372,226.823 
			503.888,234.156 497.396,230.156 482.566,235.99 472.734,230.49 465.736,238.156 450.236,238.99 447.403,247.656 435.736,251.99 
			432.236,245.656 421.736,250.49 411.07,236.49 390.736,238.49 389.236,231.823 382.736,225.823 374.236,229.823 363.238,221.744 
			357.738,224.823 348.904,226.49 346.404,223.323 338.738,226.323 333.238,216.156 323.405,220.49 318.571,214.823 311.405,214.49 
			304.905,211.99 295.238,217.656 278.738,212.323 275.238,208.323 270.905,209.323 267.571,206.823 262.738,208.156 
			258.238,203.156 246.905,206.156 238.905,200.49 232.238,204.323 220.905,207.99 214.411,202 202.577,204.156 192.911,198.49 
			182.077,202 167.744,197.156 159.411,207.323 152.244,206.323 142.077,215.156 136.744,213.156 126.911,214.656 121.738,216.984 
			114.784,208.279 105.238,211.484 98.911,206.49 85.411,219.323 73.577,222.99 39.935,228.49 35.793,228.323 35.793,225 
			30.911,222.656 19.661,233.99 15.453,234.495 4.911,252.5 -0.207,252.5 		"/>
		<polygon id="road_x5F_top" fill="#1E439B" stroke="#FFFFFF" stroke-width="0.5" stroke-miterlimit="10" points="-0.792,207.956 
			36.5,192.415 45.042,190.582 105.168,183.5 111.293,183.5 119.918,180.5 139.751,178.53 144.688,176.801 169.168,175.987 
			196.835,176.32 203.127,178.154 234.043,177.446 241.418,178.25 251.543,177.625 272.418,181.063 315.793,184.031 
			370.418,195.766 405.168,202.633 421.959,203.409 465.126,206.034 524.668,204.5 541.168,199.625 554.918,197.625 
			553.847,195.125 524.418,202 467.293,205 405.293,201.125 367.168,192.656 340.418,187.75 324.918,182.125 287.543,179.875 
			262.918,178.25 253.793,175 239.543,176.905 233.209,175.113 201.084,174.654 169.501,174.029 144.209,174.821 129.168,177.696 
			119.418,176.375 112.168,179.125 101.793,178.25 89.918,182.313 77.793,183.781 48.418,188.766 39.793,188.258 29.418,194.129 
			-2,205.873 		"/>
		<g id="Grass">
			<path fill="none" stroke="#1E439B" stroke-miterlimit="10" d="M30.73,181.875c2.066,3.314,2.305,7.919,2.063,11.813"/>
			<path fill="none" stroke="#1E439B" stroke-miterlimit="10" d="M32.793,193.313c0.086-1.02-0.666-2.337-1.172-3.249
				c-0.569-1.024-1.172-1.882-2.016-2.689"/>
			<path fill="none" stroke="#1E439B" stroke-miterlimit="10" d="M33.043,193.375c0.215-0.711,0.789-1.276,1.014-2
				c0.252-0.812,0.442-1.569,0.486-2.438c0.041-0.808,0-1.628,0-2.438c0-0.406,0.006-0.802-0.064-1.186
				c-0.069-0.376-0.274-0.698-0.249-1.064"/>
			<path fill="none" stroke="#1E439B" stroke-miterlimit="10" d="M174.855,174.688c-0.68-1.697-0.596-4.272-0.5-6.188
				c0.053-1.051,0.37-2.063,0.688-3.063c0.273-0.86,0.895-1.673,1.063-2.563"/>
			<path fill="none" stroke="#1E439B" stroke-miterlimit="10" d="M180.918,162.75c-0.146,0.111-0.313,0.233-0.455,0.359
				c-2.907,2.573-5.917,7.247-4.67,11.266"/>
			<path fill="none" stroke="#1E439B" stroke-miterlimit="10" d="M176.73,174.438c-0.001-1.857,0.716-4.118,1.498-5.877
				c0.817-1.837,2.038-3.393,3.502-4.748"/>
			<path fill="none" stroke="#1E439B" stroke-miterlimit="10" d="M286.855,180.563c0.001-1.897-0.202-3.816-0.125-5.75
				c0.075-1.886,0.626-3.974,1.375-5.688"/>
			<path fill="none" stroke="#1E439B" stroke-miterlimit="10" d="M287.918,180.438c0-2.131,0.641-4.222,1.203-6.249
				c0.328-1.181,0.635-2.307,1.125-3.439c0.447-1.034,1.078-1.949,1.547-2.938"/>
			<path fill="none" stroke="#1E439B" stroke-miterlimit="10" d="M288.668,180.625c-0.077-0.966,0.446-1.883,0.861-2.703
				c0.476-0.94,0.975-1.978,1.573-2.856c1.102-1.621,2.652-2.777,3.941-4.191"/>
			<path fill="none" stroke="#1E439B" stroke-miterlimit="10" d="M474.98,205.125c0.262-1.146,1.099-2.165,1.438-3.326
				c0.479-1.646,0.934-3.333,1.25-5.028c0.374-2.003,0.401-4.056,0.438-6.101c0.017-0.91,0.134-1.815,0.186-2.73
				c0.036-0.614-0.071-1.492,0.127-2.064"/>
			<path fill="none" stroke="#1E439B" stroke-miterlimit="10" d="M474.293,205.813c0.429-0.216,0.902-1.039,1.252-1.454
				c0.476-0.567,0.944-1.156,1.378-1.733c0.915-1.219,1.525-2.633,2.117-4.03c1.235-2.917,2.387-5.82,2.954-8.972
				c0.11-0.611,0.322-1.372,0.236-1.999"/>
			<path fill="none" stroke="#1E439B" stroke-miterlimit="10" d="M476.23,204.813c0.693-0.143,1.214-0.771,1.737-1.205
				c0.614-0.507,1.291-0.951,1.888-1.479c1.223-1.083,2.211-2.183,3.177-3.477c0.897-1.202,1.823-2.345,2.695-3.585
				c0.561-0.797,1.491-2.358,2.378-2.816"/>
			<path fill="none" stroke="#1E439B" stroke-miterlimit="10" d="M109.376,200.167c0.055-1.092-0.689-2.18-1.067-3.166
				c-0.43-1.123-0.927-2.219-1.665-3.213c-0.687-0.925-1.572-1.497-2.456-2.184c-0.659-0.512-1.267-1.247-2.063-1.521"/>
			<path fill="none" stroke="#1E439B" stroke-miterlimit="10" d="M113.293,189.083c-1.054,1.892-1.521,3.779-2.081,5.833
				c-0.473,1.732-1.464,3.603-1.335,5.417"/>
			<path fill="none" stroke="#1E439B" stroke-miterlimit="10" d="M109.043,188.917c-0.051,1.778,0.362,3.666,0.667,5.417
				c0.304,1.751,0.417,3.5,0.417,5.333"/>
			<path fill="none" stroke="#1E439B" stroke-miterlimit="10" d="M240.461,196c-0.633-1.419-0.307-4.605,0-6.144
				c0.33-1.654,0.587-3.743,1.417-5.19"/>
			<path fill="none" stroke="#1E439B" stroke-miterlimit="10" d="M242.044,195.917c0-2.675,0.866-5.354,1.856-7.833
				c0.938-2.346,2.639-4.201,4.061-6.25"/>
			<path fill="none" stroke="#1E439B" stroke-miterlimit="10" d="M243.294,196.75c-0.167-1.793,1.129-3.717,1.856-5.333
				c0.646-1.434,1.565-3.527,2.894-4.417"/>
			<path fill="none" stroke="#1E439B" stroke-miterlimit="10" d="M387.13,220.328c0.606-0.622,0.813-2.448,1.187-3.329
				c0.55-1.298,1.147-2.564,1.913-3.752c1.438-2.229,3.176-4.644,5.316-6.252"/>
			<path fill="none" stroke="#1E439B" stroke-miterlimit="10" d="M388.38,220.828c-0.05-1.229,1.203-2.99,1.831-4
				c0.916-1.474,2.168-2.684,3.329-3.931c2.276-2.444,5.21-4.117,7.84-5.985"/>
			<path fill="none" stroke="#1E439B" stroke-miterlimit="10" d="M390.296,221.245c0.2-1.057,1.724-2.189,2.521-2.816
				c1.159-0.912,2.32-1.839,3.481-2.769c1.271-1.019,2.653-1.953,4.085-2.729c0.604-0.328,1.376-0.617,1.829-1.103"/>
			<path fill="none" stroke="#1E439B" stroke-miterlimit="10" d="M511.127,222.745c0-2.208,0.313-4.265,0.417-6.429
				c0.097-2.01-0.21-4.69,0.5-6.488"/>
			<path fill="none" stroke="#1E439B" stroke-miterlimit="10" d="M512.211,221.412c0.191-2.229,1.52-4.671,2.23-6.771
				c0.5-1.475,0.864-3.757,0.686-5.313"/>
			<path fill="none" stroke="#1E439B" stroke-miterlimit="10" d="M520.794,209.578c-1.023,0.346-1.984,1.594-2.769,2.353
				c-1.213,1.172-2.361,2.324-3.38,3.652c-0.875,1.142-1.529,2.452-1.955,3.813c-0.291,0.932-0.944,1.997-0.979,2.933"/>
		</g>
	</g>
	<g id="blue_x5F_mans">
		<g id="blue_x5F_man_x5F_1">
			<path id="body" fill="#1E439B" d="M291.384,190.876c0,0,16.991-1.18,27.667-13.653s12.25-20.599,12.25-20.599
				s16.417,6.667,15.083,17.5s-12.427,25.389-12.427,25.389s26.25-18.917,21.76-33.217s-14.269-14.763-18.093-20.283
				c-3.824-5.521-2.24-12.182-2.24-12.182s0.406,3.515,6.406,7.349s14.672,6.286,14.672,6.286s-14.101-8.799-16.912-15.228
				s-3.352-12.33-3.426-16.989s-0.082-7.708,1.918-10.875c0.943-1.493,2.56-4.502,4.117-8.058s1.375-9.294-2.512-10.599
				c-3.432-1.152-7.833,1.375-9.681,5.459c-2.113,4.67-1.425,11.073-1.425,11.073s-1.305,2.091-4.778,7.924
				s-3.066,32.448-3.797,41.536s-7.122,20.974-11.583,25.416S291.384,190.876,291.384,190.876z"/>
			<path id="arm_x5F_left" fill="#1E439B" d="M312.461,156.939c0,0-0.106-13.377,2.644-19.752s5.25-8.5,5.25-8.5
				s0.105-8.233,0.803-11.877s1.635-6.436,1.635-6.436s-9.108,10.712-10.796,19.587S312.461,156.939,312.461,156.939z"/>
		</g>
		<g id="blue_x5F_man_x5F_2_1_">
			<path fill="#1E439B" d="M-0.207,188.5c0,0,36.75-25.211,36.25-48.48S0.048,102.583,0.048,102.583L-0.207,135
				c0,0,9.75,2.5,9.75,13.5s-9.75,24.5-9.75,24.5V188.5z"/>
			<path fill="#1E439B" d="M0.048,90.696c0,0,31.995-13.289,34.745-30.117s-2.25-26.984-10.5-26.906s-24.5,16.56-24.5,16.56
				L0.048,90.696z"/>
		</g>
	</g>
	<g id="light_x5F_spot">
		<g id="Ampoule">
			<path fill="#FFFFFF" stroke="#1E439B" stroke-miterlimit="10" d="M105.382,64.146l6.385,23.146L105.382,64.146
				c-0.316,0.485-0.627,0.968-0.926,1.444l5.428,20.532l-5.428-20.532c-0.38,0.607-0.744,1.204-1.094,1.791l4.999,17.794
				l5.132,3.189l-6.849-26.103C106.208,62.895,105.788,63.523,105.382,64.146z"/>
			<path fill="#FFFFFF" stroke="#1E439B" stroke-miterlimit="10" d="M106.644,62.262l6.849,26.103l1.65,1.025l-7.308-28.812
				C107.427,61.141,107.028,61.703,106.644,62.262z"/>
			<path fill="#FFFFFF" stroke="#1E439B" stroke-miterlimit="10" d="M102.442,68.952l3.892,14.964L102.442,68.952
				c-0.325,0.565-0.636,1.119-0.93,1.653l3.697,12.613l-3.697-12.613c-0.203,0.37-0.396,0.729-0.585,1.081l2.827,10.628l4.606,2.862
				l-4.999-17.794C103.042,67.916,102.735,68.439,102.442,68.952z"/>
			<path fill="#FFFFFF" stroke="#1E439B" stroke-miterlimit="10" d="M98.795,75.911l0.661,3.731L98.795,75.911
				c-0.769,1.623-1.169,2.594-1.169,2.594l3.301,2.051l-1.472-6.009C99.212,75.041,98.991,75.498,98.795,75.911z"/>
			<path fill="#FFFFFF" stroke="#1E439B" stroke-miterlimit="10" d="M100.191,73.088l2.25,8.409L100.191,73.088
				c-0.266,0.516-0.51,1.002-0.736,1.459l1.472,6.009l2.827,1.757l-2.827-10.628C100.667,72.172,100.421,72.641,100.191,73.088z"/>
			<path fill="#FFFFFF" stroke="#1E439B" stroke-miterlimit="10" d="M107.834,60.579l7.308,28.812l2.101,1.305l-8.009-31.989
				C108.754,59.33,108.287,59.954,107.834,60.579z"/>
			<path fill="#FFFFFF" stroke="#1E439B" stroke-miterlimit="10" d="M114.459,52.672c-0.633,0.644-1.25,1.302-1.851,1.971
				l8.351,38.362c0,0,0.896-0.506,2.357-1.417l-8.561-39.207C114.658,52.479,114.556,52.575,114.459,52.672z"/>
			<path fill="#FFFFFF" stroke="#1E439B" stroke-miterlimit="10" d="M140.266,35.787l4.944,35.898L140.266,35.787
				c-2.781,1.322-6.525,3.213-10.487,5.533l7.809,39.558l-7.809-39.558c-1.23,0.72-2.479,1.481-3.727,2.279l8.417,39.989
				L126.053,43.6c-1.167,0.746-2.331,1.523-3.476,2.331l8.111,40.624c3.433-2.558,7.248-5.734,10.521-9.262l-6.166-38.447
				l6.166,38.447c1.232-1.328,2.388-2.705,3.417-4.119c1.454-1.999,2.89-4.168,4.269-6.38l-3.935-33.12
				C144.959,33.672,143.119,34.432,140.266,35.787z"/>
			<path fill="#FFFFFF" stroke="#1E439B" stroke-miterlimit="10" d="M110.888,56.638l8.262,35.243L110.888,56.638
				c-0.568,0.684-1.119,1.375-1.654,2.069l8.009,31.989l3.716,2.31l-8.351-38.362C112.019,55.299,111.446,55.965,110.888,56.638z"/>
			<path fill="#FFFFFF" stroke="#1E439B" stroke-miterlimit="10" d="M119.955,47.862l8.226,40.503
				c0.802-0.562,1.641-1.166,2.507-1.811l-8.111-40.624C121.688,46.558,120.811,47.202,119.955,47.862z"/>
			<path fill="#FFFFFF" stroke="#1E439B" stroke-miterlimit="10" d="M117.5,49.854l8.096,40.27L117.5,49.854
				c-0.963,0.823-1.881,1.667-2.745,2.527l8.561,39.207c1.263-0.788,2.949-1.88,4.865-3.223l-8.226-40.503
				C119.113,48.511,118.293,49.176,117.5,49.854z"/>
			<path fill="#FFFFFF" stroke="#1E439B" stroke-miterlimit="10" d="M156.463,43.027l0.522,9.351
				c1.944-3.793,3.141-6.373,3.141-6.373l-9.095-7.396l2.021,21.12l-2.021-21.12l-6.072-4.938l3.935,33.12
				c3.181-5.103,6.048-10.429,8.09-14.414L156.463,43.027z"/>
		</g>
		<path id="pole" fill="#1E439B" stroke="#FFFFFF" stroke-miterlimit="10" d="M19.293,407h75c0,0-32.5-119.668-21-198.668
			s44.5-109.832,44.5-109.832s11,0.75,11-2.25s-38.25-24.5-36.75-18.5s1.5,9,1.5,9s-33.864,46.716-43.864,97.716
			c-3.702,18.881-11.064,54.097-16.052,91.198C25.142,338.779,19.293,407,19.293,407z"/>
		<path id="header" fill="#1E439B" stroke="#FFFFFF" stroke-miterlimit="10" d="M103.626,31.338c0,0,68.333-9.666,71.667-5.333
			s-6.333,59.434-6.333,59.434s-8-34.101-17.667-43.101S103.626,31.338,103.626,31.338z"/>
	</g>
	<g id="heads">
		<g id="head_x5F_1">
			<polygon fill="#1E439B" stroke="#FFFFFF" stroke-width="0.75" stroke-miterlimit="10" points="431.293,79.25 469.043,92.5 
				479.132,81.306 476.543,72.625 458.793,71.875 454.668,47.625 439.293,44.75 440.793,25.875 431.918,24.25 430.293,11 
				411.543,41.25 433.627,59 			"/>
			<polygon fill="#FFFFFF" stroke="#1E439B" stroke-miterlimit="10" points="430.293,11 453.543,11.75 487.043,72.75 
				479.132,81.306 476.543,72.625 458.793,71.875 454.668,47.625 439.293,44.75 440.793,25.875 431.918,24.25 			"/>
			<g>
				<polygon fill="#FFFFFF" points="442.918,39.125 448.668,49.75 446.918,55.356 441.918,54.625 				"/>
				<path fill="#1E439B" d="M442.99,38.188l0.367,0.7l5.612,10.699l0.069,0.132l-0.043,0.134l-1.823,5.583l-0.071,0.22l-0.223-0.036
					l-4.99-0.796l-0.186-0.029l0.014-0.183l1.201-15.487L442.99,38.188z M442.869,40.064l-0.75,14.573l-0.172-0.212l5.01,0.667
					l-0.294,0.185l1.677-5.629l0.026,0.265L442.869,40.064z"/>
			</g>
			<path fill="#FFFFFF" stroke="#1E439B" stroke-miterlimit="10" d="M444.418,20.125c1.75-1.625,7.625-1.5,9.25,1.25
				s0.125,9.125-2.125,10.375s-7.5,1.25-8.75-1.5S442.668,21.75,444.418,20.125z"/>
			<polygon fill="#1E439B" points="447.293,19.068 452.816,30.389 448.307,32.538 443.569,21.321 			"/>
			<path fill="#FFFFFF" d="M436.293,28.5l-16.375,10.625c0,0,8.748,4.285,12.248,1.66S436.293,28.5,436.293,28.5z"/>
			<polyline fill="#1E439B" points="426.17,35.068 427.049,41.459 434.043,39.125 431.353,31.706 			"/>
			<g id="mouth">
				<g>
					<polygon fill="#FFFFFF" points="442.262,69.125 462.918,51 466.418,52.875 					"/>
					<path fill="#1E439B" d="M438.995,71.284l2.937-2.535l20.806-17.954l0.146-0.125l0.164,0.09l3.484,1.904l0.353,0.192
						l-0.332,0.219l-24.29,16.05L438.995,71.284z M445.492,66.913l20.792-14.237l0.021,0.411l-3.516-1.846l0.309-0.035
						L445.492,66.913z"/>
				</g>
				<line fill="none" stroke="#1E439B" stroke-width="0.5" stroke-miterlimit="10" x1="462.063" y1="51.75" x2="464.98" y2="53.5"/>
				
					<line fill="none" stroke="#1E439B" stroke-width="0.5" stroke-miterlimit="10" x1="461.066" y1="52.625" x2="463.974" y2="54.52"/>
				
					<line fill="none" stroke="#1E439B" stroke-width="0.5" stroke-miterlimit="10" x1="459.986" y1="53.572" x2="462.729" y2="55.356"/>
				
					<line fill="none" stroke="#1E439B" stroke-width="0.5" stroke-miterlimit="10" x1="458.907" y1="54.52" x2="461.357" y2="56.279"/>
				
					<line fill="none" stroke="#1E439B" stroke-width="0.5" stroke-miterlimit="10" x1="457.904" y1="55.399" x2="460.133" y2="57.104"/>
				
					<line fill="none" stroke="#1E439B" stroke-width="0.5" stroke-miterlimit="10" x1="456.902" y1="56.279" x2="458.907" y2="57.928"/>
				
					<line fill="none" stroke="#1E439B" stroke-width="0.5" stroke-miterlimit="10" x1="456.043" y1="57.375" x2="457.673" y2="58.758"/>
				
					<line fill="none" stroke="#1E439B" stroke-width="0.5" stroke-miterlimit="10" x1="454.864" y1="58.066" x2="456.422" y2="59.6"/>
				
					<line fill="none" stroke="#1E439B" stroke-width="0.5" stroke-miterlimit="10" x1="453.738" y1="59.054" x2="454.864" y2="60.647"/>
				
					<line fill="none" stroke="#1E439B" stroke-width="0.5" stroke-miterlimit="10" x1="452.59" y1="60.063" x2="453.517" y2="61.554"/>
				
					<line fill="none" stroke="#1E439B" stroke-width="0.5" stroke-miterlimit="10" x1="451.187" y1="61.294" x2="452.072" y2="62.526"/>
				
					<line fill="none" stroke="#1E439B" stroke-width="0.5" stroke-miterlimit="10" x1="449.782" y1="62.526" x2="450.626" y2="63.499"/>
				
					<line fill="none" stroke="#1E439B" stroke-width="0.5" stroke-miterlimit="10" x1="448.307" y1="63.821" x2="449.145" y2="64.495"/>
			</g>
		</g>
		<g id="head_x5F_2">
			<path fill="#FFFFFF" stroke="#1E439B" stroke-miterlimit="10" d="M291.384,56.279c-0.925,20.892,2.909,24.317,17.909,26.438
				s22.334-2.109,30.167-1.411s13.499,6.34,20.666,6.853s18.834-2.316,18.167-18.652s-13.666-36.932-29.5-37.8
				c-15.833-0.869-10.334,1.76-17.333,3.362C324.459,36.67,292.309,35.387,291.384,56.279z"/>
			<path fill="#1E439B" stroke="#1E439B" stroke-miterlimit="10" d="M291.384,63.012c0,0,5.409-0.84,9.742,4.993
				s3.55,13.926,3.55,13.926s-7.917-0.835-10.9-6.297S291.384,63.012,291.384,63.012z"/>
			<path fill="#1E439B" d="M338.661,81.257c0,0-3.04-12.708,4.733-16.608s16.568,1.479,16.421,8.915s-5.894,12.994-5.894,12.994"/>
			<path fill="#1E439B" stroke="#1E439B" stroke-miterlimit="10" d="M327.668,46.75c0.5,5.25-3,14.25-7.125,14.875
				c-2.722,0.412-7.622,0.172-10.64-2.806c-1.555-1.534-2.61-3.796-2.61-7.069c0-9.625,6.059-12.485,9.779-12.805
				S327.168,41.5,327.668,46.75z"/>
			<path fill="#1E439B" d="M357.155,34.026c0,0-6.737,14.224-1.237,20.599s19.502,1.654,19.502,1.654s-2.544-7.292-6.492-11.88
				S357.155,34.026,357.155,34.026z"/>
			<g id="left_x5F_eye">
				<path fill="#FFFFFF" stroke="#1E439B" stroke-miterlimit="10" d="M300.793,59.874c0,0,9.5,1.39,14.583-2.61
					s9.333-12.417,9.333-12.417s-10.85,0.99-15.267,4.324S300.793,59.874,300.793,59.874z"/>
				<path fill="none" stroke="#1E439B" stroke-width="0.5" stroke-miterlimit="10" d="M303.785,55.324c0,0-0.075,0.964,0.716,2.339
					s1.5,2.443,1.5,2.443"/>
				<path fill="none" stroke="#1E439B" stroke-width="0.5" stroke-miterlimit="10" d="M306.146,52.343c0,0,0.188,2.945,0.938,4.154
					s2.429,3.188,2.429,3.188"/>
				<path fill="none" stroke="#1E439B" stroke-width="0.5" stroke-miterlimit="10" d="M316.496,46.266c0,0,1.839,0.939,2.339,2.064
					s1.236,3.917,1.236,3.917"/>
				<path fill="none" stroke="#1E439B" stroke-width="0.5" stroke-miterlimit="10" d="M319.474,45.613c0,0,1.236,0.717,1.611,1.509
					s0.845,2.464,0.845,2.464"/>
				<path fill="#1E439B" d="M308.053,50.351c0,0-0.176,3.426,0.99,4.974s3.357,3.57,3.357,3.57s2.358-0.985,3.57-2.122
					s2.313-2.319,2.313-2.319s-0.782-2.832-1.449-3.748s-3.423-3.519-3.423-3.519l-3.15,1.435L308.053,50.351z"/>
			</g>
			<g id="right_x5F_eye">
				<path fill="#FFFFFF" stroke="#1E439B" stroke-miterlimit="10" d="M343.502,49.256c0,0,9.958-2.925,13.583,0.783
					s4.458,13.875,4.458,13.875s-10.208-2.125-13.083-4.75S343.502,49.256,343.502,49.256z"/>
				<path fill="none" stroke="#1E439B" stroke-width="0.5" stroke-miterlimit="10" d="M347.298,48.455c0,0-1.296,0.667-1.796,1.584
					s-0.985,2.208-0.985,2.208"/>
				<path fill="none" stroke="#1E439B" stroke-width="0.5" stroke-miterlimit="10" d="M351.21,48.16c0,0-2.624,1.419-3.583,2.961
					s-1.751,4.265-1.751,4.265"/>
				<path fill="none" stroke="#1E439B" stroke-width="0.5" stroke-miterlimit="10" d="M360.582,57.961c0,0-0.622,2.035-1.372,2.785
					s-2.913,1.84-2.913,1.84"/>
				<path fill="none" stroke="#1E439B" stroke-width="0.5" stroke-miterlimit="10" d="M359.615,54.584c0,0-1.655,3.333-2.655,4.31
					s-4.438,2.44-4.438,2.44"/>
				<path fill="#1E439B" d="M355.532,48.974c0,0-3.613,1.732-4.655,3.69s-2.691,6.23-2.691,6.23l2.295,1.559
					c0,0,3.604-2.165,4.729-3.582s3.149-5.098,3.149-5.098L355.532,48.974z"/>
			</g>
			<g id="mouth_1_">
				<path fill="#1E439B" stroke="#FFFFFF" stroke-miterlimit="10" d="M339.296,69.072c0,0,2.185,0.509,4.56,0
					s5.188-4.009,8.375-2.447s4.021,7.125,1.042,9.125s-8.229,2.75-10.604,1.063s-4.592-2.688-4.592-2.688"/>
				<path fill="#FFFFFF" stroke="#1E439B" stroke-miterlimit="10" d="M339.296,69.072c0,0-5.003-0.759-7.565-1.014
					s-7.438,1.317-9.188,1.067s-1.688-2.375-3.069-2.898s-2.681,0.836-4.618,3.773c0,0-2.813,5.125,0.625,5.563
					s10.25-3.063,14.688-2.813s7.962,1.4,7.962,1.4"/>
			</g>
			<g id="noise">
				<path fill="#FFFFFF" stroke="#1E439B" stroke-miterlimit="10" d="M331.293,56.014c1.938-0.576,1,2.274,2.438,2.88
					s6.313-0.35,5.188,2.44s-4.313,2.731-6.75,1.636s-3.688-2.62-3.375-4.076S331.293,56.014,331.293,56.014z"/>
				<path fill="#FFFFFF" stroke="#1E439B" stroke-miterlimit="10" d="M334.788,59.1c0,0,0.125,1.275-0.872,1.837
					s-3.096,1.305-3.096,1.305"/>
			</g>
		</g>
		<g id="head_x5F_3">
			<path fill="#1E439B" stroke="#FFFFFF" stroke-miterlimit="10" d="M222.626,23.834c0,0,1.333,0.167,1-5.833s-1-7-1-7
				s4.5,2,6,6.417s3.226,10.651,3.226,10.651s2.155-2.401,3.131-6.734s0-9.667,0-9.667s7.143,3.567,7.81,7.867
				s2.043,14.138,2.043,14.138s3.79-3.839,4.124-8.005s0-12.5,0-12.5s3.834,7.834,4.667,10.667s2.14,11.742,2.14,11.742
				s3.193-5.968,3.693-10.688s1-12.387,1-12.387s4.833,11.667,5,15s0,8.833,0,8.833s-16.504-0.491-23.5-3.667
				S222.626,23.834,222.626,23.834z"/>
			<path fill="#FFFFFF" stroke="#1E439B" stroke-miterlimit="10" d="M186.043,82.167c0,0,34.016,12.266,56.55-8.7
				s22.867-37.133,22.867-37.133s-16.833-0.667-23.5-3.667s-19.333-8.833-19.333-8.833S219.126,43.68,211.293,59
				S186.043,82.167,186.043,82.167z"/>
			<path fill="#1E439B" d="M218.645,40.073c0,0,1.648,16.325-2.685,26.043s-11,19.322-11,19.322l-5.232-0.263
				c0,0,11.149-16.232,13.316-21.341s2.14-13.603,2.14-13.603L218.645,40.073z"/>
			<path fill="#1E439B" d="M243.711,33.331c0,0-9.918,11.588-12.501,21.171s-1.253,27.159-1.253,27.159l2.999-1.412
				c0,0-0.912-18.602,1.004-25.466s13.17-20.547,13.17-20.547L243.711,33.331z"/>
			<path fill="#1E439B" d="M259.271,35.921c0,0-2.062,4.667-2.479,8.583s-0.345,13.212-0.345,13.212l2.365-3.65
				c0,0-0.269-6.039,0.147-9.706s2-8.026,2-8.026L259.271,35.921z"/>
			<path fill="#FFFFFF" stroke="#1E439B" stroke-miterlimit="10" d="M225.126,63.92c3.75,1-0.083,7.083-2.833,9.5
				s-12.909,9.692-12.953,3.417s6.12-5,8.12-6.667S221.376,62.92,225.126,63.92z"/>
			<path fill="#FFFFFF" stroke="#1E439B" stroke-miterlimit="10" d="M248.126,44.254l5.5,2.564c0,0-1.917,7.603-3.75,9.686
				s-7,6.466-7,6.466l-6-3.286c0,0,5.833-4.464,6.917-6.072S248.126,44.254,248.126,44.254z"/>
			<path fill="#FFFFFF" stroke="#1E439B" stroke-miterlimit="10" d="M227.876,39.587h7.75c0,0-2.083,7.083-4.333,9.5
				s-5.542,5.696-5.542,5.696l-3.625-1.743c0,0,4.167-4.24,5-6.222S227.876,39.587,227.876,39.587z"/>
			<path fill="#1E439B" d="M228.293,39.587c0,0,0.667,4.25,0,6.417s-4.335,7.917-4.335,7.917s5.752-5.634,6.585-6.734
				s4.44-7.6,4.44-7.6H228.293z"/>
			<path fill="#1E439B" d="M248.391,44.377c0,0-1.848,6.449-3.139,8.663s-5.633,8.146-5.633,8.146s7.342-5.04,8.342-6.403
				s5.667-7.965,5.667-7.965L248.391,44.377z"/>
			<g>
				<g>
					<polygon fill="#1E439B" points="229.114,39.598 229.471,32.92 230.114,39.576 					"/>
				</g>
				<g>
					<polygon fill="#1E439B" points="231.543,39.604 231.793,32.337 232.542,39.57 					"/>
				</g>
				<g>
					<polygon fill="#1E439B" points="234.483,39.17 234.983,34.504 235.483,39.17 					"/>
				</g>
				<g>
					<polygon fill="#1E439B" points="223.633,53.999 219.793,56.504 222.999,53.226 					"/>
				</g>
				<g>
					<polygon fill="#1E439B" points="225.553,54.829 222.626,57.496 224.792,54.181 					"/>
				</g>
				<g>
					<polygon fill="#1E439B" points="248.714,44.192 249.793,39.587 249.706,44.316 					"/>
				</g>
				<g>
					<polygon fill="#1E439B" points="250.576,45.546 252.043,39.587 251.563,45.706 					"/>
				</g>
				<g>
					<polygon fill="#1E439B" points="252.467,46.38 254.126,41.92 253.436,46.628 					"/>
				</g>
				<g>
					<polygon fill="#1E439B" points="239.141,61.191 234.983,63.337 238.59,60.356 					"/>
				</g>
				<g>
					<polygon fill="#1E439B" points="241.065,61.538 236.925,65.004 240.355,60.834 					"/>
				</g>
				<g>
					<polygon fill="#1E439B" points="242.824,63.124 240.043,65.004 242.146,62.388 					"/>
				</g>
			</g>
		</g>
	</g>
	<g id="details">
		<g id="waves">
			<path fill="none" stroke="#1E439B" stroke-miterlimit="10" d="M25.293,113.889c5.333,1.613,12.333,13.776,12.333,18.445"/>
			<path fill="none" stroke="#1E439B" stroke-miterlimit="10" d="M37.626,121.177c2.667,4.825,3.5,16.154,0,20.99"/>
			<path fill="none" stroke="#1E439B" stroke-miterlimit="10" d="M23.793,169.333c-0.667,5-7.666,8.833-9.333,10.333"/>
			<path fill="none" stroke="#1E439B" stroke-miterlimit="10" d="M3.96,148.667c1.5,4,0.333,8.333-1.167,11.5"/>
			<path fill="none" stroke="#1E439B" stroke-miterlimit="10" d="M6.293,145.542c1.167,3.292,1.167,8.458,0,11.125"/>
			<path fill="none" stroke="#1E439B" stroke-miterlimit="10" d="M10.96,35.345c2.833-2.833,17.333-7.347,20.5-1.673"/>
			<path fill="none" stroke="#1E439B" stroke-miterlimit="10" d="M19.293,29.512c3.833-1.667,7.667-1.333,9.667,0"/>
			<path fill="none" stroke="#1E439B" stroke-miterlimit="10" d="M35.552,63.845c0.126,4.178-15.426,21.917-19.592,22.708"/>
			<path fill="none" stroke="#1E439B" stroke-miterlimit="10" d="M34.96,71.686c-0.976,2.37-5.667,7.416-7.5,8.871"/>
			<path fill="none" stroke="#1E439B" stroke-miterlimit="10" d="M221.555,87.333c2.239,0,8.29,0.167,10.238-3.667"/>
			<path fill="none" stroke="#1E439B" stroke-miterlimit="10" d="M223.958,90.84c4.502-0.173,9.169-2.171,9.836-5.339"/>
			<path fill="none" stroke="#1E439B" stroke-miterlimit="10" d="M226.688,93.833c4.772,0,10.035-2.498,10.237-6.499"/>
			<path fill="none" stroke="#1E439B" stroke-miterlimit="10" d="M229.471,96.927c6.656,0.24,14.563-6.758,14.609-9.593"/>
			<path fill="none" stroke="#1E439B" stroke-miterlimit="10" d="M231.918,100.446c5.209,0.387,17.542-7.105,17.292-12.276"/>
			<path fill="none" stroke="#1E439B" stroke-miterlimit="10" d="M314.96,85.733c2.333,0.268,8,0.565,9.75,0"/>
			<path fill="none" stroke="#1E439B" stroke-miterlimit="10" d="M314.96,88.213c3.333,1.287,9.166,0.793,10.833-0.043"/>
			<path fill="none" stroke="#1E439B" stroke-miterlimit="10" d="M316.496,92.134c2.464,0.534,8.297,1.133,9.297,0"/>
			<path fill="none" stroke="#1E439B" stroke-miterlimit="10" d="M330.819,86.558c0.974-1.246,3.724-2.371,4.474-2.433"/>
			<path fill="none" stroke="#1E439B" stroke-miterlimit="10" d="M345.543,90.438c0.688,1.875-1.813,8.25-2.938,9.5"/>
			<path fill="none" stroke="#1E439B" stroke-miterlimit="10" d="M346.855,96.927c-0.063,1.51-2.008,5.198-2.723,5.76"/>
			<path fill="none" stroke="#1E439B" stroke-miterlimit="10" d="M345.043,136c0.75,1.75,5.083,6.12,6.25,6.477"/>
			<path fill="none" stroke="#1E439B" stroke-miterlimit="10" d="M353.21,140.927c0.417,1.323,3.834,3.073,4.667,3.24"/>
			<path fill="none" stroke="#1E439B" stroke-miterlimit="10" d="M341.377,147.369c1.166,1.297,8.083,4.798,8.333,5.464"/>
			<path fill="none" stroke="#1E439B" stroke-miterlimit="10" d="M350.793,150.102c1.417,1.398,4.417,8.482,4.417,9.232"/>
			<path fill="none" stroke="#1E439B" stroke-miterlimit="10" d="M316.516,144.167c0.027-1.667,1.027-7.583,1.61-8.167"/>
			<path fill="none" stroke="#1E439B" stroke-miterlimit="10" d="M308.21,140.927c0.083-1.677,0-5.594,0-6.26"/>
			<path fill="none" stroke="#1E439B" stroke-miterlimit="10" d="M308.247,131.5c0.546-1,3.379-8.5,4.046-8.583"/>
			<path fill="none" stroke="#1E439B" stroke-miterlimit="10" d="M305.793,173.243c1.25-1.5,6.75-9.083,6.5-11.083"/>
			<path fill="none" stroke="#1E439B" stroke-miterlimit="10" d="M312.301,167.41c0.992-1.333,5.465-8.917,5.02-11.75"/>
			<path fill="none" stroke="#1E439B" stroke-miterlimit="10" d="M324.793,172.38c1.333-0.887,5.25-5.804,5.417-8.471"/>
			<path fill="none" stroke="#1E439B" stroke-miterlimit="10" d="M323.924,176.41c1.786-1.083,5.786-5.583,6.286-7.167"/>
			<polyline fill="none" stroke="#1E439B" stroke-miterlimit="10" points="427.762,64.495 426.17,69.506 429.17,71.986 			"/>
			<polyline fill="none" stroke="#1E439B" stroke-miterlimit="10" points="425.459,64.495 422.959,70.858 428.105,74.316 			"/>
			<polyline fill="none" stroke="#1E439B" stroke-miterlimit="10" points="422.293,66.227 420.626,71.986 425.532,75.601 			"/>
		</g>
		<g id="brics">
			<g id="brique_x5F_1">
				<path fill="none" stroke="#1E439B" stroke-width="0.75" stroke-miterlimit="10" d="M24.71,208.412c0,0,2.583-1.75,3.833-2.25
					s4.75-1.167,4.75-1.167l0.417,1.708c0,0-2.583,0.291-4,1.375s-3.917,2.25-3.917,2.25L24.71,208.412z"/>
				<path fill="none" stroke="#1E439B" stroke-width="0.75" stroke-miterlimit="10" d="M33.293,204.995c0,0,3.5-1.499,4.333-1.583
					s4.167-0.667,4.167-0.667v2.583l-8.083,1.375"/>
				<path fill="none" stroke="#1E439B" stroke-width="0.75" stroke-miterlimit="10" d="M28.543,206.162v-2.834
					c0,0,3.25-1.583,4.75-1.833s6.417-1,6.417-1v2.25"/>
			</g>
			<polygon fill="none" stroke="#1E439B" stroke-width="0.75" stroke-miterlimit="10" points="87.793,198.579 97.293,197.745 
				96.877,195.745 93.635,196.072 87.793,196.662 			"/>
			<polygon fill="none" stroke="#1E439B" stroke-width="0.75" stroke-miterlimit="10" points="93.96,192.912 101.043,192.912 
				101.043,195.412 93.635,196.072 			"/>
			<polygon fill="none" stroke="#1E439B" stroke-width="0.75" stroke-miterlimit="10" points="119.877,184.745 119.543,187.579 
				126.916,187.245 126.916,184.412 			"/>
			<polygon fill="none" stroke="#1E439B" stroke-width="0.75" stroke-miterlimit="10" points="146.21,190.162 145.604,191.495 
				156.46,191.829 156.46,190.162 			"/>
			<polygon fill="none" stroke="#1E439B" stroke-width="0.75" stroke-miterlimit="10" points="152.71,188.079 152.71,190.162 
				162.044,189.579 162.044,187.579 			"/>
			<polygon fill="none" stroke="#1E439B" stroke-width="0.75" stroke-miterlimit="10" points="186.544,179.329 186.544,181.245 
				200.544,182.745 200.878,180.476 			"/>
			<polygon fill="none" stroke="#1E439B" stroke-width="0.75" stroke-miterlimit="10" points="195.711,178.245 195.355,180.034 
				204.794,181.037 204.794,178.995 			"/>
			<polyline fill="none" stroke="#1E439B" stroke-width="0.75" stroke-miterlimit="10" points="219.211,185.995 219.211,187.579 
				226.378,188.87 226.378,186.829 218.878,185.995 			"/>
			<polygon fill="none" stroke="#1E439B" stroke-width="0.75" stroke-miterlimit="10" points="235.544,187.995 226.378,186.829 
				226.378,188.87 235.128,190.162 			"/>
			<polygon fill="none" stroke="#1E439B" stroke-width="0.75" stroke-miterlimit="10" points="262.378,185.412 261.712,187.433 
				272.295,188.87 272.295,185.995 			"/>
			<polygon fill="none" stroke="#1E439B" stroke-width="0.75" stroke-miterlimit="10" points="267.003,188.495 267.003,190.495 
				276.947,191.412 276.947,188.87 			"/>
			<polyline fill="none" stroke="#1E439B" stroke-width="0.75" stroke-miterlimit="10" points="318.295,196.079 326.212,196.829 
				325.629,199.514 317.353,198.662 			"/>
			<polygon fill="none" stroke="#1E439B" stroke-width="0.75" stroke-miterlimit="10" points="303.462,196.771 313.795,197.796 
				314.462,195.745 308.468,195.112 305.793,194.829 			"/>
			
				<line fill="none" stroke="#1E439B" stroke-width="0.75" stroke-miterlimit="10" x1="309.047" y1="192.495" x2="315.795" y2="192.995"/>
			
				<line fill="none" stroke="#1E439B" stroke-width="0.75" stroke-miterlimit="10" x1="309.047" y1="192.745" x2="308.468" y2="195.112"/>
			<polyline fill="none" stroke="#1E439B" stroke-width="0.75" stroke-miterlimit="10" points="318.962,193.495 322.212,193.495 
				321.782,196.079 			"/>
			<polyline fill="none" stroke="#1E439B" stroke-width="0.75" stroke-miterlimit="10" points="353.002,199.079 351.629,201.495 
				360.129,205.162 			"/>
			
				<line fill="none" stroke="#1E439B" stroke-width="0.75" stroke-miterlimit="10" x1="361.352" y1="202" x2="352.755" y2="199.514"/>
			<polyline fill="none" stroke="#1E439B" stroke-width="0.75" stroke-miterlimit="10" points="357.617,204.079 357.053,206.745 
				359.546,208.245 			"/>
			<polyline fill="none" stroke="#1E439B" stroke-width="0.75" stroke-miterlimit="10" points="364.462,206.162 369.462,208.245 
				367.712,210.745 361.879,209.53 			"/>
			<polyline fill="none" stroke="#1E439B" stroke-width="0.75" stroke-miterlimit="10" points="412.712,208.813 408.574,208.245 
				408.046,209.53 414.296,211.245 			"/>
			<polyline fill="none" stroke="#1E439B" stroke-width="0.75" stroke-miterlimit="10" points="416.796,213.995 409.296,212.328 
				408.574,215.162 418.796,216.912 			"/>
			<polyline fill="none" stroke="#1E439B" stroke-width="0.75" stroke-miterlimit="10" points="415.962,208.813 423.129,209.162 
				423.129,211.745 418.092,211.745 			"/>
			
				<line fill="none" stroke="#1E439B" stroke-width="0.75" stroke-miterlimit="10" x1="428.046" y1="212.328" x2="418.462" y2="211.745"/>
			
				<line fill="none" stroke="#1E439B" stroke-width="0.75" stroke-miterlimit="10" x1="420.629" y1="214.62" x2="426.879" y2="215.328"/>
			<polyline fill="none" stroke="#1E439B" stroke-width="0.75" stroke-miterlimit="10" points="429.629,215.328 432.446,215.328 
				432.446,212.828 430.296,212.828 			"/>
			<polyline fill="none" stroke="#1E439B" stroke-width="0.75" stroke-miterlimit="10" points="472.294,211.745 466.961,211.745 
				467.877,208.813 471.155,208.813 			"/>
			<polyline fill="none" stroke="#1E439B" stroke-width="0.75" stroke-miterlimit="10" points="475.377,211.328 476.544,211.328 
				482.306,211.328 482.627,209.53 479.002,209.53 			"/>
			<polygon fill="none" stroke="#1E439B" stroke-width="0.75" stroke-miterlimit="10" points="476.544,213.662 488.461,212.828 
				488.461,210.828 476.544,211.328 			"/>
			<path fill="none" stroke="#1E439B" stroke-width="0.75" stroke-miterlimit="10" d="M523.044,208.813v2.515
				c0,0,3.249-0.464,5.833-0.898s7.334-1.616,7.334-1.616l-0.417-2.818c0,0-3.833,1.251-6.583,1.917
				S523.044,208.813,523.044,208.813z"/>
			<path fill="none" stroke="#1E439B" stroke-width="0.75" stroke-miterlimit="10" d="M548.211,201.579l1.083,2.083
				c0,0-4.333,1.5-6,2.333c-0.547,0.273-1.497,0.708-2.528,1.169c-2.109,0.944-4.555,1.998-4.555,1.998l-0.417-3.167
				c0,0,2.583-1.667,4.333-2.25S548.211,201.579,548.211,201.579z"/>
			<path fill="none" stroke="#1E439B" stroke-width="0.75" stroke-miterlimit="10" d="M541.211,209.53l-0.445-2.366l-11.139,3.266
				v2.398c0,0,2.333,0.334,5.25-0.583S541.211,209.53,541.211,209.53z"/>
		</g>
		
			<line fill="none" stroke="#1E439B" stroke-width="0.75" stroke-miterlimit="10" x1="315.795" y1="192.995" x2="318.962" y2="193.495"/>
		
			<line fill="none" stroke="#1E439B" stroke-width="0.75" stroke-miterlimit="10" x1="314.462" y1="195.745" x2="318.295" y2="196.079"/>
		
			<line fill="none" stroke="#1E439B" stroke-width="0.75" stroke-miterlimit="10" x1="317.353" y1="198.662" x2="313.795" y2="197.796"/>
		
			<line fill="none" stroke="#1E439B" stroke-width="0.75" stroke-miterlimit="10" x1="361.352" y1="202" x2="360.129" y2="204.625"/>
		
			<line fill="none" stroke="#1E439B" stroke-width="0.75" stroke-miterlimit="10" x1="360.129" y1="204.625" x2="364.462" y2="206.162"/>
		
			<line fill="none" stroke="#1E439B" stroke-width="0.75" stroke-miterlimit="10" x1="359.546" y1="208.245" x2="361.879" y2="209.53"/>
		
			<line fill="none" stroke="#1E439B" stroke-width="0.75" stroke-miterlimit="10" x1="412.712" y1="208.813" x2="415.962" y2="208.813"/>
		
			<line fill="none" stroke="#1E439B" stroke-width="0.75" stroke-miterlimit="10" x1="418.092" y1="211.745" x2="414.296" y2="211.245"/>
		
			<line fill="none" stroke="#1E439B" stroke-width="0.75" stroke-miterlimit="10" x1="416.193" y1="214.078" x2="420.629" y2="214.62"/>
		
			<line fill="none" stroke="#1E439B" stroke-width="0.75" stroke-miterlimit="10" x1="418.796" y1="216.912" x2="419.545" y2="214.62"/>
		
			<line fill="none" stroke="#1E439B" stroke-width="0.75" stroke-miterlimit="10" x1="426.879" y1="215.328" x2="429.629" y2="215.328"/>
		
			<line fill="none" stroke="#1E439B" stroke-width="0.75" stroke-miterlimit="10" x1="431.037" y1="212.828" x2="428.046" y2="212.328"/>
		
			<line fill="none" stroke="#1E439B" stroke-width="0.75" stroke-miterlimit="10" x1="421.16" y1="211.909" x2="419.545" y2="214.62"/>
		
			<line fill="none" stroke="#1E439B" stroke-width="0.75" stroke-miterlimit="10" x1="472.294" y1="211.745" x2="475.377" y2="211.328"/>
		
			<line fill="none" stroke="#1E439B" stroke-width="0.75" stroke-miterlimit="10" x1="470.543" y1="208.888" x2="479.002" y2="209.53"/>
	</g>
</g>
</svg>
